<svg width="102" height="99" viewBox="0 0 102 99" fill="none" xmlns="http://www.w3.org/2000/svg">
<path fill-rule="evenodd" clip-rule="evenodd" d="M63.4231 90.6858C71.0748 67.7865 80.784 51.768 92.4952 31.6495V79.7816C92.4952 82.6736 91.3235 85.4469 89.2376 87.4921C87.1522 89.537 84.3232 90.6858 81.3733 90.6858H63.4231ZM76.9249 23.613C60.7425 46.1087 52.0565 65.4857 42.7589 90.6858H59.4416C65.4807 69.7168 80.7617 43.5571 92.4952 24.9107V8.33601H31.8595L28.0782 23.7221C44.3826 23.7221 60.7092 23.613 76.9249 23.613ZM38.6438 90.6858C48.3531 62.9451 54.4254 50.0452 69.6845 27.1896L69.4622 27.4295H23.1623L27.9002 8.33601H19.6034C16.6537 8.33601 13.8249 9.48485 11.7391 11.5298C9.6534 13.5748 8.48166 16.3484 8.48166 19.2404V90.6858H38.6438ZM19.9037 10.4842C16.5672 13.1012 8.24811 19.393 21.5942 27.7567C17.3235 18.1391 26.1318 17.3975 19.9037 10.4842ZM14.1426 27.0152C14.6215 27.0824 15.0693 27.2872 15.4295 27.6038C15.7897 27.9205 16.046 28.3347 16.1661 28.7941C16.2863 29.2535 16.2648 29.7376 16.1045 30.1851C15.9442 30.6325 15.6522 31.0234 15.2653 31.3082C14.8786 31.593 14.4143 31.759 13.9313 31.7852C13.4483 31.8115 12.9682 31.6967 12.5517 31.4555C12.1352 31.2143 11.8009 30.8574 11.5912 30.4301C11.3815 30.0027 11.3056 29.5239 11.3733 29.0543C11.4169 28.7414 11.5234 28.4401 11.6865 28.1678C11.8497 27.8956 12.0663 27.6577 12.3239 27.4681C12.5815 27.2784 12.8748 27.1408 13.187 27.063C13.4992 26.9853 13.824 26.969 14.1426 27.0152ZM38.7884 39.6206C31.448 44.3204 19.5812 33.9721 31.1033 29.1197C29.8354 31.9658 33.3165 39.5879 38.7884 39.6206ZM47.0296 39.4353C35.5965 43.4589 49.4208 53.1747 56.1941 45.1492C50.5439 44.5603 47.2631 44.8874 47.0296 39.4353ZM11.3066 55.5737C10.0721 68.877 23.7518 70.1093 28.5341 57.0567C24.041 61.1459 16.734 62.8689 11.3066 55.5737ZM11.3066 65.6057C10.1944 77.6003 21.8722 78.1458 25.8649 67.0015C21.9278 70.6653 16.734 70.7415 11.3066 65.6057ZM24.6527 83.7289C25.1319 83.7964 25.5799 84.0018 25.94 84.319C26.3001 84.6362 26.5561 85.0511 26.6756 85.5112C26.7951 85.9713 26.7727 86.4556 26.6113 86.9034C26.4499 87.3507 26.1567 87.7414 25.7688 88.0253C25.3809 88.3092 24.9158 88.4744 24.4323 88.499C23.9488 88.5237 23.4687 88.4073 23.0527 88.1645C22.6367 87.9217 22.3036 87.5633 22.0954 87.1348C21.8872 86.7062 21.8134 86.2269 21.8834 85.7568C21.9769 85.1283 22.321 84.5614 22.8402 84.1812C23.3594 83.801 24.0112 83.6385 24.6527 83.7289ZM58.3184 30.5482C58.7962 30.6174 59.2426 30.8239 59.6009 31.1415C59.9597 31.4591 60.2144 31.8737 60.3326 32.333C60.4513 32.7923 60.4285 33.2757 60.2669 33.7223C60.1058 34.1689 59.8132 34.5587 59.4261 34.8424C59.0391 35.1262 58.5753 35.2913 58.0929 35.3169C57.6104 35.3425 57.1307 35.2274 56.7149 34.9862C56.2991 34.745 55.9654 34.3885 55.7559 33.9616C55.5464 33.5347 55.4702 33.0565 55.5378 32.5873C55.5825 32.274 55.6902 31.9724 55.8545 31.7001C56.0188 31.4277 56.2366 31.19 56.4949 31.0004C56.7537 30.8109 57.0476 30.6733 57.3608 30.5957C57.6734 30.5181 57.9989 30.502 58.3184 30.5482ZM41.6355 29.2615C31.537 32.2602 39.6337 41.9542 46.8294 37.7996C40.4455 35.8368 40.5567 34.2121 41.6578 29.2615H41.6355ZM38.8218 43.001C30.803 52.0953 46.6848 61.4074 53.1798 50.7538C44.6718 52.5207 38.6994 46.8611 38.844 43.001H38.8218ZM40.1564 81.1664C35.1405 89.3882 23.5294 86.3675 26.9771 73.533C28.4341 77.6003 31.1589 82.3331 40.2231 81.2207L40.1564 81.1664ZM43.2704 71.0578C39.3445 80.6648 26.877 78.6907 28.6676 67.0124C31.0143 71.8214 36.2638 73.9256 43.2704 71.0578ZM46.8961 64.188C42.0359 74.1328 26.3765 70.5128 30.4805 57.4821C32.994 64.2428 41.6133 65.9873 46.8961 64.188ZM49.7099 56.8823C46.0731 66.9362 30.6028 63.1195 33.3388 48.9111C35.5965 54.6034 38.6772 59.8921 49.7099 56.8823ZM59.3303 40.6238C53.4802 46.076 45.4837 40.6238 54.5144 35.5206C53.5692 38.9228 54.5035 41.4635 59.3303 40.6565V40.6238ZM10.984 84.1433C15.4328 85.2337 20.6043 89.3991 25.231 73.4349C18.3021 80.872 14.1426 74.591 10.984 84.1433ZM49.3985 29.1088C42.7255 31.3878 44.9498 40.6565 53.2688 33.4706C50.9442 34.5392 47.6413 33.416 49.3985 29.1088ZM21.7499 29.436C4.08858 40.2531 24.408 52.3349 33.4499 42.8592C26.0429 44.8111 18.3689 34.4192 21.7499 29.436ZM12.6189 42.7066C6.29068 57.5912 25.4423 61.9853 31.0143 48.584C22.6396 53.8617 16.5005 50.438 12.6189 42.7066ZM72.3094 83.7289C72.6289 83.774 72.937 83.8804 73.2145 84.042C73.4925 84.2035 73.7353 84.4176 73.9288 84.6709C74.1224 84.9247 74.2634 85.2132 74.3433 85.5204C74.4232 85.8271 74.4405 86.1466 74.3944 86.4602C74.3488 86.7737 74.2401 87.0754 74.0754 87.3479C73.9101 87.6204 73.6924 87.8587 73.4336 88.0481C73.1748 88.238 72.8804 88.3763 72.5673 88.4548C72.2542 88.5328 71.9283 88.5502 71.6088 88.505C71.2902 88.4598 70.9839 88.3534 70.7073 88.1923C70.4307 88.0312 70.1893 87.8185 69.9967 87.5656C69.8041 87.3132 69.6644 87.0257 69.585 86.7199C69.5056 86.4145 69.4882 86.0964 69.5343 85.7842C69.5804 85.472 69.6886 85.1716 69.8529 84.9005C70.0172 84.6294 70.2345 84.393 70.4924 84.204C70.7498 84.015 71.0428 83.8776 71.3546 83.8001C71.6668 83.7225 71.9908 83.7056 72.3094 83.7508V83.7289ZM85.5551 85.4409C83.8093 81.8748 75.9016 74.5363 69.9072 81.559C80.339 80.7629 74.7007 90.6858 85.5551 85.4409ZM88.8141 74.1328C94.3082 60.5461 76.2128 59.8811 73.5883 71.7014C76.2462 68.1138 88.3134 65.8458 88.8141 74.1328ZM90.6047 43.6662C90.3933 47.45 92.0392 50.7323 80.4951 56.435C86.3005 51.8337 81.0953 49.0856 90.6047 43.6662ZM89.6703 57.1005C87.0568 56.3045 82.7859 51.7137 75.7459 65.126C82.953 57.9728 85.2105 66.0635 89.6703 57.1005ZM86.8341 83.1072C93.9298 69.9674 74.2442 66.6961 70.9301 78.3201C73.644 75.0055 83.4199 74.9726 86.8341 83.1072ZM96.3767 4.5413H19.6367C17.6681 4.53699 15.7179 4.91346 13.8978 5.64913C12.0777 6.38481 10.4235 7.46525 9.0299 8.82859C7.63629 10.1919 6.53063 11.8114 5.77624 13.5943C5.02185 15.3771 4.63354 17.2884 4.63354 19.2186L4.63354 94.4587H81.3733C83.3423 94.4628 85.2922 94.0867 87.1125 93.3509C88.9327 92.6152 90.5869 91.5348 91.9803 90.1714C93.3738 88.808 94.4798 87.1886 95.2338 85.4058C95.9883 83.623 96.3767 81.7114 96.3767 79.7816V4.5413Z" fill="#909090"/>
</svg>
