<svg width="24" height="24" viewBox="0 0 24 24" fill="none" xmlns="http://www.w3.org/2000/svg">
<g id="noun-phone-850923 1">
<g id="Group">
<path id="Vector" d="M5.37443 2.16016C4.68627 2.22474 4.13367 2.77252 4.12027 3.43762C4.27066 7.94525 5.69773 11.5749 8.29091 14.0602C10.8843 16.5452 14.6069 17.8482 19.2282 17.8402C19.9865 17.8436 20.5092 17.2028 20.5232 16.5569C20.5309 15.4918 20.5391 14.4241 20.5465 13.3603C20.5465 12.6171 19.873 12.1348 19.2515 12.1294C18.2943 12.1332 16.9597 11.7853 15.8798 11.5169C15.6955 11.4724 15.4899 11.5294 15.3548 11.6628L13.5757 13.3895C11.4323 12.1024 10.4507 11.1541 9.13071 9.07881L10.8981 7.36972C11.0412 7.23158 11.1015 7.01346 11.0498 6.82143C10.7588 5.73197 10.279 4.31244 10.3557 3.31545C10.2799 2.53719 9.54137 2.15636 8.95571 2.16052H5.37406L5.37443 2.16016ZM5.38029 3.28022H8.9796C9.16046 3.2836 9.16046 3.2836 9.24796 3.44936C9.21476 4.65091 9.60902 5.86471 9.87789 6.79767L8.02297 8.60599C7.84224 8.78151 7.80396 9.08529 7.93547 9.30012C9.53102 11.8864 10.7143 13.0341 13.3721 14.5851C13.5812 14.7066 13.8691 14.6715 14.0429 14.5034L15.9155 12.6777C16.9311 12.9343 18.1495 13.2537 19.2578 13.2493C19.3381 13.2644 19.4173 13.3782 19.4269 13.3893L19.4036 16.551C19.3647 16.6421 19.4269 16.7236 19.1936 16.7201C14.7999 16.7201 11.4096 15.494 9.06697 13.2495C6.71801 10.9987 5.38365 7.69084 5.24032 3.3972C5.24032 3.28392 5.24032 3.28392 5.38029 3.28053L5.38029 3.28022Z" fill="#F0F1F6"/>
</g>
</g>
</svg>
