<svg width="37" height="38" viewBox="0 0 37 38" fill="none" xmlns="http://www.w3.org/2000/svg">
<path opacity="0.1" fill-rule="evenodd" clip-rule="evenodd" d="M18.5 36.6191C28.165 36.6191 36 28.7841 36 19.1191C36 9.45416 28.165 1.61914 18.5 1.61914C8.83502 1.61914 1 9.45416 1 19.1191C1 28.7841 8.83502 36.6191 18.5 36.6191Z" stroke="#212121" stroke-width="1.5"/>
<path d="M14 12.1191V22.1191" stroke="#212121" stroke-width="2" stroke-linecap="round" stroke-linejoin="round"/>
<path d="M24 17.1191C25.3807 17.1191 26.5 15.9999 26.5 14.6191C26.5 13.2384 25.3807 12.1191 24 12.1191C22.6193 12.1191 21.5 13.2384 21.5 14.6191C21.5 15.9999 22.6193 17.1191 24 17.1191Z" stroke="#212121" stroke-width="2" stroke-linecap="round" stroke-linejoin="round"/>
<path d="M14 27.1191C15.3807 27.1191 16.5 25.9999 16.5 24.6191C16.5 23.2384 15.3807 22.1191 14 22.1191C12.6193 22.1191 11.5 23.2384 11.5 24.6191C11.5 25.9999 12.6193 27.1191 14 27.1191Z" stroke="#212121" stroke-width="2" stroke-linecap="round" stroke-linejoin="round"/>
<path d="M24 17.1191C24 19.1083 23.2098 21.0159 21.8033 22.4224C20.3968 23.829 18.4891 24.6191 16.5 24.6191" stroke="#212121" stroke-width="2" stroke-linecap="round" stroke-linejoin="round"/>
</svg>
