<svg width="37" height="38" viewBox="0 0 37 38" fill="none" xmlns="http://www.w3.org/2000/svg">
<path opacity="0.1" fill-rule="evenodd" clip-rule="evenodd" d="M18.5 36.6191C28.165 36.6191 36 28.7841 36 19.1191C36 9.45416 28.165 1.61914 18.5 1.61914C8.83502 1.61914 1 9.45416 1 19.1191C1 28.7841 8.83502 36.6191 18.5 36.6191Z" stroke="#212121" stroke-width="1.5"/>
<path d="M22.3333 15.2856C23.6594 15.2856 24.9312 15.8124 25.8689 16.7501C26.8066 17.6878 27.3333 18.9596 27.3333 20.2856V26.119H24V20.2856C24 19.8436 23.8244 19.4197 23.5119 19.1071C23.1993 18.7946 22.7754 18.619 22.3333 18.619C21.8913 18.619 21.4674 18.7946 21.1548 19.1071C20.8423 19.4197 20.6667 19.8436 20.6667 20.2856V26.119H17.3333V20.2856C17.3333 18.9596 17.8601 17.6878 18.7978 16.7501C19.7355 15.8124 21.0073 15.2856 22.3333 15.2856Z" fill="#212121"/>
<path d="M14 16.1191H10.6667V26.1191H14V16.1191Z" fill="#212121"/>
<path d="M12.3333 13.619C13.2538 13.619 14 12.8728 14 11.9523C14 11.0318 13.2538 10.2856 12.3333 10.2856C11.4128 10.2856 10.6667 11.0318 10.6667 11.9523C10.6667 12.8728 11.4128 13.619 12.3333 13.619Z" fill="#212121"/>
</svg>
