<svg width="37" height="38" viewBox="0 0 37 38" fill="none" xmlns="http://www.w3.org/2000/svg">
<path opacity="0.1" fill-rule="evenodd" clip-rule="evenodd" d="M18.5 36.6191C28.165 36.6191 36 28.7841 36 19.1191C36 9.45416 28.165 1.61914 18.5 1.61914C8.83502 1.61914 1 9.45416 1 19.1191C1 28.7841 8.83502 36.6191 18.5 36.6191Z" stroke="#212121" stroke-width="1.5"/>
<path d="M24 10.2856H21.5C20.3949 10.2856 19.3351 10.7246 18.5537 11.506C17.7723 12.2874 17.3333 13.3472 17.3333 14.4523V16.9523H14.8333V20.2856H17.3333V26.9523H20.6667V20.2856H23.1667L24 16.9523H20.6667V14.4523C20.6667 14.2313 20.7545 14.0193 20.9108 13.8631C21.067 13.7068 21.279 13.619 21.5 13.619H24V10.2856Z" fill="#212121"/>
</svg>
