<svg width="47" height="38" viewBox="0 0 47 38" fill="none" xmlns="http://www.w3.org/2000/svg">
<g id="Group">
<path id="Vector" d="M23.339 0.243736C28.0881 0.243736 31.9374 4.01864 31.9374 8.67569C31.9374 11.5435 30.4777 14.0769 28.247 15.6003C28.579 15.7268 28.905 15.8667 29.2238 16.0179C29.2358 16.0238 29.2478 16.0297 29.2598 16.0351C29.318 16.0629 29.3759 16.0914 29.4337 16.12C29.4585 16.1322 29.4834 16.1448 29.5082 16.157C29.5391 16.1729 29.5699 16.1885 29.6008 16.2044C29.6423 16.2254 29.683 16.2469 29.7237 16.2683C29.7456 16.2801 29.7674 16.2914 29.7889 16.3032C30.2528 16.5502 30.7018 16.8241 31.1337 17.1237C31.1444 17.1317 31.1556 17.1396 31.1663 17.1472C31.2022 17.1712 31.237 17.1959 31.2721 17.2207C30.9109 16.454 30.7091 15.5995 30.7091 14.6987C30.7091 11.3721 33.4591 8.67573 36.851 8.67573C40.2433 8.67573 42.9928 11.3721 42.9928 14.6987C42.9928 16.4822 42.2024 18.0845 40.9463 19.1873C44.3291 20.7094 46.6782 24.0605 46.6782 27.9492V32.2715C46.6782 32.7631 46.374 33.205 45.9091 33.3887C42.8995 34.5793 39.8778 35.1767 36.851 35.1767C36.4183 35.1767 35.9856 35.1646 35.5525 35.1402L35.9072 35.1566L35.6249 35.2658C35.3155 35.3826 35.0058 35.4952 34.6965 35.6036L34.5795 35.6439C34.4583 35.6859 34.337 35.7275 34.2158 35.7679C34.1875 35.7775 34.1588 35.7868 34.1305 35.7964C34.011 35.8359 33.8915 35.875 33.772 35.9136C33.7107 35.933 33.6494 35.9527 33.5877 35.972C33.4896 36.0027 33.3919 36.0334 33.2938 36.0632C33.2407 36.0796 33.1872 36.096 33.1336 36.1119C33.0342 36.1418 32.9352 36.1712 32.8359 36.2002C32.7874 36.2144 32.7386 36.2287 32.6898 36.2426C32.569 36.2775 32.4481 36.3115 32.3273 36.3447C32.3149 36.348 32.3025 36.3518 32.2901 36.3552C32.1521 36.393 32.0142 36.4304 31.8762 36.4665C31.8359 36.477 31.7957 36.4875 31.7554 36.498C31.6543 36.5241 31.5536 36.5497 31.4529 36.5749C31.3762 36.5938 31.2991 36.6127 31.222 36.6316C31.1406 36.6514 31.0596 36.6707 30.9782 36.6896C30.9204 36.7031 30.863 36.7165 30.8056 36.7299C30.7053 36.7526 30.6051 36.7753 30.5048 36.7972C30.4341 36.8131 30.3634 36.8283 30.2927 36.8434C30.2126 36.8606 30.1325 36.8774 30.0524 36.8938C29.9929 36.9064 29.9324 36.9186 29.8725 36.9304C29.7619 36.9526 29.651 36.9745 29.5404 36.9955C29.5006 37.003 29.4612 37.0106 29.4218 37.0177C29.313 37.0383 29.2041 37.0581 29.0949 37.0774C29.0383 37.0875 28.9822 37.0971 28.9257 37.1068C28.8357 37.1224 28.7457 37.1375 28.6558 37.1522C28.5778 37.1648 28.4998 37.177 28.4218 37.1892C28.3683 37.1976 28.3147 37.206 28.2616 37.2139C28.1519 37.2307 28.0423 37.2467 27.9326 37.2623C27.8893 37.2681 27.8456 37.2744 27.8019 37.2803C27.7021 37.2938 27.6019 37.3072 27.502 37.3198C27.4318 37.3291 27.3606 37.3379 27.29 37.3463C27.2073 37.3564 27.1254 37.366 27.0432 37.3753C26.9618 37.3845 26.8804 37.3938 26.7986 37.4022C26.7261 37.4101 26.6542 37.4173 26.5818 37.4248C26.4987 37.4328 26.4151 37.4408 26.3316 37.4488C26.2617 37.4551 26.1919 37.4614 26.1216 37.4673C26.0531 37.4732 25.9846 37.4786 25.916 37.4841C25.8188 37.4916 25.7215 37.4992 25.6238 37.5059C25.6011 37.5076 25.5784 37.5093 25.5553 37.5106C25.4315 37.519 25.3072 37.5269 25.1834 37.5341C24.5686 37.5685 23.9538 37.5862 23.3391 37.5862C19.0853 37.5862 14.8363 36.7526 10.5992 35.0906L10.7705 35.1566L10.4766 35.1679L10.2603 35.173L9.82714 35.1767C6.8003 35.1767 3.77874 34.5793 0.769014 33.3887C0.304175 33.2051 0 32.7631 0 32.2715V27.9492C0 24.0605 2.34904 20.7095 5.73187 19.1865C4.47576 18.0845 3.68533 16.4821 3.68533 14.6986C3.68533 11.372 6.4349 8.67563 9.82717 8.67563C13.219 8.67563 15.969 11.372 15.969 14.6986C15.969 15.5994 15.7672 16.4543 15.4056 17.2215C15.7916 16.9459 16.1922 16.6913 16.6056 16.4581L16.7611 16.372C16.7748 16.3644 16.789 16.3569 16.8027 16.3493C16.8297 16.3346 16.8567 16.3199 16.8841 16.3052C16.9269 16.2825 16.9702 16.2598 17.013 16.2375C17.0439 16.2212 17.0752 16.2052 17.1064 16.1892C17.5353 15.9703 17.9774 15.7733 18.4311 15.5998C16.2003 14.0768 14.7407 11.5434 14.7407 8.67561C14.7407 4.01845 18.5901 0.243652 23.3391 0.243652L23.339 0.243736ZM23.339 17.1081L23.0961 17.111C22.944 17.114 22.7923 17.1203 22.6415 17.1295C22.6214 17.1308 22.6017 17.132 22.582 17.1333L22.6415 17.1295C22.5768 17.1337 22.5126 17.1379 22.4487 17.143L22.582 17.1333C22.5036 17.1383 22.4256 17.1446 22.3481 17.1514L22.4487 17.143C22.1853 17.1635 21.9239 17.1934 21.6647 17.232C21.6617 17.2324 21.6579 17.2329 21.6544 17.2333L21.6647 17.232C21.5876 17.2438 21.5101 17.256 21.433 17.269L21.6544 17.2333C21.5756 17.245 21.4968 17.2576 21.4184 17.2711L21.433 17.269C21.0427 17.3358 20.6584 17.4223 20.2809 17.5286C20.2758 17.5299 20.2706 17.5312 20.2651 17.5328L20.2809 17.5286C20.0603 17.5908 19.8418 17.6597 19.6263 17.7349C19.5972 17.745 19.568 17.7551 19.5389 17.7656L19.6263 17.7349C19.565 17.7563 19.5038 17.7782 19.4429 17.8005L19.5389 17.7656C19.4721 17.7895 19.4057 17.8143 19.3392 17.8395L19.4429 17.8005C19.3825 17.8227 19.3225 17.8454 19.263 17.8689L19.3392 17.8395C19.0325 17.9563 18.7326 18.0862 18.44 18.2282C18.4301 18.2324 18.4211 18.2366 18.4117 18.2412L18.44 18.2282C18.1581 18.3651 17.8835 18.513 17.6157 18.6722C17.6029 18.679 17.5904 18.6865 17.578 18.6937L17.6157 18.6722C16.7495 19.1873 15.9607 19.8158 15.2718 20.5368C15.2701 20.538 15.2688 20.5397 15.2671 20.541L15.2718 20.5368C15.2273 20.5834 15.1831 20.63 15.1399 20.6775C15.1146 20.704 15.0902 20.7309 15.0658 20.7582L15.1399 20.6775C15.0829 20.7389 15.0263 20.8015 14.9711 20.8645C14.9402 20.8994 14.9098 20.9342 14.8794 20.9695L14.9711 20.8645C13.2963 22.7647 12.2836 25.2409 12.2836 27.9496V33.1461L12.4078 33.1923C12.5539 33.2457 12.7004 33.2973 12.8465 33.3486C12.9146 33.3721 12.9828 33.3956 13.0509 33.4188C13.4742 33.5633 13.8966 33.699 14.3194 33.8254C14.5323 33.8893 14.7452 33.9506 14.9582 34.0099C15.4787 34.1548 15.9992 34.2863 16.5193 34.4039C16.7995 34.4674 17.0792 34.527 17.3594 34.5829C17.6979 34.6502 18.0359 34.7115 18.3739 34.7674C18.5723 34.8001 18.7702 34.8308 18.9686 34.8594C19.2608 34.9018 19.5525 34.94 19.8447 34.9741C20.1857 35.0136 20.5268 35.0476 20.8678 35.0757C20.9873 35.0854 21.1064 35.0946 21.2255 35.103C21.462 35.1194 21.6989 35.1333 21.9354 35.1442C22.258 35.1593 22.5797 35.1694 22.9015 35.174L22.8745 35.1728L22.9015 35.174L23.3389 35.177L23.7763 35.174C24.027 35.1703 24.278 35.1635 24.5286 35.1535C24.5775 35.1518 24.6263 35.1497 24.6756 35.1476L24.5286 35.1535C24.6512 35.1488 24.7737 35.1434 24.8958 35.1367L24.6756 35.1476C24.823 35.1409 24.9699 35.1333 25.1173 35.1245L24.8958 35.1367C25.0573 35.1287 25.2193 35.1186 25.3808 35.1077L25.1173 35.1245C25.2651 35.1156 25.4125 35.106 25.5599 35.0951L25.3808 35.1077C25.5222 35.098 25.6635 35.0875 25.8054 35.0762L25.5599 35.0951C25.7115 35.0837 25.8636 35.0715 26.0153 35.0581L25.8053 35.0762C25.9416 35.0648 26.0778 35.0526 26.2141 35.0396L26.0153 35.0581C26.1644 35.0446 26.3135 35.0304 26.4625 35.0148L26.2141 35.0396C26.3983 35.022 26.5825 35.0026 26.7663 34.9816L26.4626 35.0148C26.5975 35.001 26.732 34.9858 26.867 34.9703L26.7663 34.9816C26.8876 34.9682 27.0084 34.9535 27.1292 34.9384L26.867 34.9703C27.0405 34.9497 27.214 34.9279 27.3875 34.9047L27.1292 34.9384C27.2663 34.9211 27.4029 34.9026 27.54 34.8837L27.3875 34.9047C27.528 34.8858 27.6686 34.8657 27.8091 34.8451L27.54 34.8837C27.7046 34.8606 27.8691 34.8363 28.0336 34.8106L27.8091 34.8451C27.9475 34.8245 28.0858 34.8027 28.2242 34.7804L28.0336 34.8106C28.2007 34.7846 28.3682 34.7573 28.5353 34.7283L28.2242 34.7804C28.3618 34.7581 28.4993 34.7346 28.6364 34.7106L28.5353 34.7283C28.6745 34.7043 28.8133 34.6791 28.9526 34.6531L28.6364 34.7106C28.8107 34.68 28.9847 34.6476 29.159 34.614L28.9526 34.6531C29.0755 34.6304 29.1985 34.6065 29.3214 34.5821L29.159 34.614C29.3253 34.5821 29.4915 34.5485 29.6577 34.5136L29.3214 34.5821C29.4739 34.5518 29.626 34.5203 29.7781 34.488L29.6577 34.5136C29.7888 34.4859 29.9195 34.4577 30.0506 34.4283L29.7781 34.488C29.9413 34.4531 30.1041 34.417 30.2674 34.3792L30.0506 34.4283C30.1954 34.396 30.3398 34.3628 30.4846 34.3283L30.2674 34.3792C30.4126 34.346 30.5583 34.3111 30.7035 34.2758L30.4846 34.3283C30.626 34.2947 30.7669 34.2603 30.9083 34.225L30.7035 34.2758C30.8693 34.2351 31.0355 34.193 31.2013 34.1498L30.9083 34.225C31.0329 34.1935 31.1572 34.1615 31.2819 34.1288L31.2013 34.1498C31.3337 34.1153 31.4657 34.0796 31.598 34.0435L31.2819 34.1288C31.4772 34.0771 31.6726 34.0237 31.8679 33.9683L31.598 34.0435C31.748 34.0023 31.8975 33.9603 32.0475 33.917L31.868 33.9683C32.0055 33.9292 32.143 33.8893 32.2805 33.8485L32.0475 33.917C32.1996 33.8729 32.3512 33.8279 32.5033 33.7817L32.2805 33.8485C32.4228 33.8065 32.5654 33.7632 32.7077 33.7187L32.5033 33.7817C32.6515 33.7364 32.7998 33.6906 32.948 33.6431L32.7077 33.7187C32.8923 33.6616 33.0765 33.6023 33.2612 33.5414L32.948 33.6431C33.0949 33.596 33.2419 33.5481 33.3884 33.4994L33.2612 33.5414C33.6035 33.4288 33.9458 33.3104 34.2885 33.186L34.3943 33.1461V27.9495C34.3943 25.3683 33.4741 22.9975 31.9382 21.1358C31.9069 21.098 31.8756 21.0602 31.8435 21.0224L31.9382 21.1358C31.8953 21.0833 31.8516 21.0316 31.8075 20.9804L31.8435 21.0224C31.7462 20.9073 31.6464 20.7947 31.5444 20.6842C31.5264 20.6644 31.5084 20.6451 31.4904 20.6258L31.5444 20.6842C31.5003 20.6359 31.4557 20.5884 31.4108 20.5414L31.4904 20.6258C31.3666 20.4935 31.2394 20.3641 31.1091 20.238C31.0963 20.225 31.083 20.212 31.0697 20.1989L31.1091 20.238C31.0646 20.1947 31.02 20.1519 30.9746 20.1095L31.0697 20.1989C31.0192 20.1506 30.9686 20.1027 30.9172 20.0557L30.9746 20.1095C30.1413 19.3293 29.1843 18.6751 28.135 18.1786C28.1003 18.1618 28.0656 18.1458 28.0305 18.1298L28.135 18.1786C28.0527 18.1399 27.9696 18.1021 27.8865 18.0651C27.8373 18.0429 27.788 18.0214 27.7383 18.0004L27.8865 18.0651C27.8274 18.0387 27.7679 18.013 27.7079 17.9878L27.7383 18.0004C27.6766 17.9744 27.6149 17.9487 27.5532 17.9235L27.7079 17.9878C27.6269 17.9534 27.5455 17.9202 27.4637 17.8878L27.5532 17.9235C27.48 17.8941 27.4063 17.8651 27.3326 17.837L27.4637 17.8878C27.4033 17.8643 27.3424 17.8408 27.2816 17.8181L27.3326 17.837C27.1111 17.753 26.887 17.6761 26.66 17.6063C26.636 17.5988 26.612 17.5912 26.5875 17.5841L26.66 17.6063C26.5803 17.5816 26.5002 17.558 26.4196 17.5349L26.5875 17.5841C26.5216 17.5639 26.4552 17.5446 26.3888 17.5261L26.4196 17.5349C26.1193 17.4496 25.8142 17.3769 25.5054 17.3169C25.4899 17.3135 25.4749 17.3106 25.4599 17.3076L25.5054 17.3169C25.352 17.2866 25.1977 17.2602 25.0422 17.2366C25.0294 17.2341 25.0161 17.232 25.0028 17.2303L25.0422 17.2366C24.879 17.2114 24.7145 17.1904 24.5491 17.1728C24.5371 17.1711 24.5251 17.1698 24.5131 17.1686L24.5491 17.1728C24.4741 17.1648 24.3992 17.1572 24.3242 17.1509L24.5131 17.1686C24.4189 17.1589 24.3242 17.1505 24.2291 17.1429L24.3242 17.1509C24.2552 17.145 24.1858 17.1396 24.1164 17.1345L24.2291 17.1429C24.1571 17.1371 24.0847 17.1324 24.0123 17.1278L24.1164 17.1345C24.0359 17.1291 23.9553 17.1245 23.8748 17.1207L24.0123 17.1278C23.9378 17.1236 23.8636 17.1198 23.7887 17.1169L23.8748 17.1207C23.697 17.1123 23.5183 17.1081 23.3388 17.1081L23.339 17.1081ZM36.851 20.7221C36.1622 20.7221 35.4878 20.8145 34.8413 20.9939C36.1159 23.0156 36.851 25.3985 36.851 27.9496V32.7681C39.299 32.7681 41.7509 32.329 44.2126 31.4481L44.2212 31.4443V27.9497C44.2212 24.0194 41.0221 20.8218 37.0383 20.7243L36.851 20.7221ZM9.82693 20.7221C5.75654 20.7221 2.45683 23.9579 2.45683 27.9496V31.4446L2.87668 31.5912C5.07063 32.3328 7.25724 32.723 9.44056 32.7642L9.82699 32.768V27.9495C9.82699 25.3984 10.5622 23.0155 11.8362 20.9938C11.1902 20.8144 10.5159 20.722 9.82699 20.722L9.82693 20.7221ZM36.851 11.0851C34.816 11.0851 33.1662 12.703 33.1662 14.6991C33.1662 16.6952 34.816 18.3131 36.851 18.3131C38.8865 18.3131 40.5364 16.6952 40.5364 14.6991C40.5364 12.703 38.8865 11.0851 36.851 11.0851ZM9.82693 11.0851C7.79146 11.0851 6.14161 12.703 6.14161 14.6991C6.14161 16.6952 7.79146 18.3131 9.82693 18.3131C11.862 18.3131 13.5118 16.6952 13.5118 14.6991C13.5118 12.703 11.862 11.0851 9.82693 11.0851ZM23.339 2.65314C19.9467 2.65314 17.1971 5.3495 17.1971 8.67612C17.1971 12.0027 19.9467 14.6991 23.339 14.6991C26.7313 14.6991 29.4808 12.0027 29.4808 8.67612C29.4808 5.3495 26.7313 2.65314 23.339 2.65314Z" fill="#A65E34"/>
</g>
</svg>
