<svg width="30" height="35" viewBox="0 0 30 35" fill="none" xmlns="http://www.w3.org/2000/svg">
<g id="Group 3607">
<path id="Vector" d="M25.4757 1.55218L24.8303 1.37119C24.6607 1.31506 20.5025 0 14.9146 0C11.6252 0 8.4888 0.459997 5.59703 1.36769L4.99098 1.55661C4.95048 1.65683 0.880354 12.1612 0.00326034 21.5841C-0.01713 21.8034 0.0587667 22.0211 0.212826 22.184C0.366603 22.3466 0.584384 22.4392 0.812074 22.4392H4.84114C4.181 26.3508 3.55261 30.5828 3.55261 32.5286V33.1228L4.17536 33.324C4.42061 33.3908 10.2803 35 16.6169 35H16.6186C20.3939 35 23.5706 34.3952 26.0377 33.2797L26.5571 33.01L26.5387 32.4697C26.5135 32.1486 26.153 27.3857 25.2934 22.4385H29.1877C29.4146 22.4385 29.6309 22.347 29.785 22.1858C29.9385 22.0248 30.0155 21.809 29.9974 21.5908C29.1189 10.9791 25.6364 1.89485 25.4761 1.55209L25.4757 1.55218ZM21.7284 12.8269C20.6369 11.9434 18.7516 10.389 16.767 8.63385C17.8083 7.96494 19.4429 6.29829 21.154 2.13992C22.2693 2.34254 23.1325 2.55529 23.6518 2.69657C23.5173 5.98773 22.3222 10.6734 21.7284 12.8267V12.8269ZM14.916 1.5718C16.6152 1.5718 18.1716 1.70378 19.5095 1.88203C17.5444 6.50716 15.8468 7.37627 15.5115 7.50657C13.3773 5.56032 11.3113 3.50704 10.176 1.92829C11.7076 1.69364 13.2901 1.5718 14.9159 1.5718L14.916 1.5718ZM8.45228 2.24483C10.7063 5.77998 17.8532 11.7392 20.5937 13.9591C16.1506 15.2843 9.67679 14.0686 7.85996 13.6803C7.35247 10.9699 6.85628 4.67665 6.70708 2.68105C7.27858 2.51622 7.8617 2.37275 8.45242 2.24487L8.45228 2.24483ZM1.7082 20.8697C2.35701 15.1146 4.11908 9.24799 5.30285 5.77059C5.54527 8.66039 5.91711 12.5178 6.30594 14.3418C6.17227 15.0405 5.65033 17.7635 5.09608 20.9501L1.7082 20.8697ZM16.6176 33.4307H16.6159C11.6616 33.4307 6.90396 32.3617 5.25533 31.9666C5.45073 28.0766 7.27711 18.1411 7.81462 15.2813C9.19406 15.5679 12.0583 16.077 15.1356 16.1293C14.3806 17.9183 13.0362 21.5274 13.0362 24.5532C13.0362 24.9867 13.4001 25.3382 13.8481 25.3382C14.2964 25.3382 14.66 24.9864 14.66 24.5532C14.66 22.2311 15.5804 19.4182 16.2913 17.5909C16.7212 18.4366 17.27 19.7452 17.7727 21.6328C17.867 21.9869 18.197 22.222 18.5586 22.222C18.6252 22.222 18.6934 22.2138 18.7617 22.1974C19.1958 22.0895 19.4572 21.6616 19.3456 21.2412C18.6334 18.5678 17.8186 16.94 17.2981 16.0833C18.8452 15.9844 20.3714 15.7331 21.7214 15.244C23.6658 20.253 24.6109 29.7039 24.8236 32.078C22.6469 32.9498 19.8902 33.4314 16.6167 33.4314L16.6176 33.4307ZM25.0029 20.8697C24.5161 18.3827 23.8981 15.9633 23.1284 14.156C23.4345 13.1122 24.5552 9.3326 25.13 5.76632C26.111 8.78095 27.6508 14.3025 28.3007 20.8703L25.0029 20.8701V20.8697Z" fill="#A65E34"/>
</g>
</svg>
