<svg width="43" height="49" viewBox="0 0 43 49" fill="none" xmlns="http://www.w3.org/2000/svg">
<path id="Vector" d="M1.46551 37.062L1.57283 36.8761L1.46552 37.062L21.3208 48.5256C21.6089 48.6919 21.9637 48.6919 22.2518 48.5256L42.1071 37.062L41.9998 36.8761L42.1071 37.062C42.3952 36.8956 42.5726 36.5883 42.5726 36.2556V13.3285C42.5726 12.9959 42.3952 12.6885 42.1071 12.5222L22.2518 1.05857C21.9637 0.892259 21.6089 0.892259 21.3208 1.05857L1.46552 12.5222H1.46551C1.17747 12.6885 1 12.9959 1 13.3285V36.2556C1 36.5883 1.17747 36.8957 1.46551 37.062ZM40.7105 14.9408V35.7174L22.7174 46.1056V25.3291L40.7105 14.9408ZM3.79324 13.3278L21.7863 2.93955L29.8005 7.56647L11.807 17.9547L3.79324 13.3278ZM39.7795 13.3279L21.7864 23.7161L13.6695 19.0298L31.6625 8.64154L39.7795 13.3279ZM2.86275 14.9406L10.8251 19.5379V40.3145L2.86275 35.7172V14.9406ZM12.6872 20.613L20.8557 25.329V46.1055L12.6872 41.3895V20.613Z" fill="#A65E34" stroke="#A65E34" stroke-width="0.429226"/>
</svg>
