<svg width="57" height="46" viewBox="0 0 57 46" fill="none" xmlns="http://www.w3.org/2000/svg">
<path d="M25.2927 17.2368C25.2927 20.9211 24.4833 24.2704 22.8645 27.2847C21.2457 30.3549 19.3477 33.0065 17.1707 35.2393C14.9378 37.528 12.4817 39.5655 9.80223 41.3518C7.12279 43.1939 4.97365 44.5336 3.35483 45.371L0.50792 40.4307C2.79661 39.091 4.97365 37.6955 7.03906 36.2441C9.16028 34.8486 10.7791 33.5088 11.8955 32.2249C13.4027 30.5503 14.6029 28.7919 15.496 26.9498C16.3892 25.1635 16.9474 22.7911 17.1707 19.8325H13.1515C9.63477 19.8325 6.8995 18.9394 4.94574 17.1531C2.99198 15.3668 2.01511 12.8827 2.01511 9.7009C2.01511 7.41221 2.90825 5.26307 4.69455 3.25349C6.48084 1.18809 8.90908 0.15539 11.9793 0.15539C16.7241 0.15539 20.1292 1.74631 22.1946 4.92814C24.26 8.05416 25.2927 12.1571 25.2927 17.2368ZM56.2738 17.2368C56.2738 20.9211 55.4644 24.2704 53.8455 27.2847C52.2267 30.3549 50.3288 33.0065 48.1517 35.2393C45.9189 37.528 43.4627 39.5655 40.7833 41.3518C38.1038 43.1939 35.9547 44.5336 34.3359 45.371L31.489 40.4307C33.7776 39.091 35.9547 37.6955 38.0201 36.2441C40.1413 34.8486 41.7601 33.5088 42.8766 32.2249C44.3838 30.5503 45.5839 28.7919 46.4771 26.9498C47.3702 25.1635 47.9284 22.7911 48.1517 19.8325H44.1326C40.6158 19.8325 37.8805 18.9394 35.9268 17.1531C33.973 15.3668 32.9961 12.8827 32.9961 9.7009C32.9961 7.41221 33.8893 5.26307 35.6756 3.25349C37.4619 1.18809 39.8901 0.15539 42.9603 0.15539C47.7052 0.15539 51.1103 1.74631 53.1757 4.92814C55.2411 8.05416 56.2738 12.1571 56.2738 17.2368Z" fill="#A65E34"/>
</svg>
