<svg width="39" height="39" viewBox="0 0 39 39" fill="none" xmlns="http://www.w3.org/2000/svg">
<path id="Vector" d="M25.4861 24.4553C25.2471 24.4553 25.0034 24.4012 24.7757 24.2881L18.4038 21.102C17.8638 20.8314 17.523 20.2801 17.523 19.6763V8.52568C17.523 7.64642 18.2366 6.93279 19.1159 6.93279C19.9951 6.93279 20.7088 7.64642 20.7088 8.52568V18.6919L26.1998 21.4382C26.9868 21.8316 27.3052 22.789 26.9119 23.5759C26.6332 24.1335 26.0708 24.4552 25.4862 24.4552L25.4861 24.4553ZM19.1158 38.7922C8.57481 38.7922 0 30.2174 0 19.6764C0 9.13536 8.57481 0.560547 19.1158 0.560547C29.6568 0.560547 38.2316 9.13536 38.2316 19.6764C38.2316 30.2174 29.6568 38.7922 19.1158 38.7922ZM19.1158 3.74674C10.3321 3.74674 3.1862 10.8926 3.1862 19.6764C3.1862 28.4601 10.3321 35.606 19.1158 35.606C27.8995 35.606 35.0454 28.4601 35.0454 19.6764C35.0454 10.8926 27.8995 3.74674 19.1158 3.74674Z" fill="#A65E34"/>
</svg>
