<svg width="32" height="46" viewBox="0 0 32 46" fill="none" xmlns="http://www.w3.org/2000/svg">
<g id="Group">
<path id="Vector" d="M26.9207 27.1586C29.2182 24.6363 30.6413 21.4207 30.9735 18.0017C31.3061 14.5822 30.5295 11.1462 28.7618 8.21665C26.9944 5.28679 24.3329 3.02391 21.1826 1.77162C18.0319 0.519335 14.5647 0.346648 11.3092 1.27988C8.05324 2.21315 5.18648 4.20105 3.14512 6.9412C1.10414 9.68136 0.000218068 13.0235 0.00158419 16.4598C0.000872714 20.4331 1.48793 24.2582 4.16152 27.1596L0.0493076 40.7397C-0.0759203 41.1689 0.0414807 41.6332 0.354909 41.9478C0.667979 42.2625 1.12656 42.3767 1.54781 42.2448L6.32924 40.8043L9.51686 44.6891C9.73743 44.9796 10.08 45.1476 10.4411 45.1425H10.6641C11.0935 45.0471 11.4401 44.7263 11.5728 44.3007L15.2225 32.1931H16.0514L19.7012 44.3007C19.8335 44.7263 20.18 45.0471 20.6094 45.1425H20.8328C21.1939 45.1476 21.5365 44.9796 21.7571 44.6891L24.9447 40.8043L29.7261 42.2448C30.1473 42.3767 30.6056 42.2625 30.919 41.9478C31.2325 41.6331 31.3495 41.1689 31.2243 40.7397L26.9207 27.1586ZM9.85051 41.4509L7.57155 38.6829C7.26381 38.3133 6.77072 38.1612 6.31253 38.2945L2.9495 39.3141L6.05742 28.9713C7.99386 30.4834 10.2547 31.5095 12.6557 31.9658L9.85051 41.4509ZM2.39166 16.4588C2.39166 12.9173 3.777 9.52064 6.24276 7.01607C8.70889 4.51187 12.0534 3.10493 15.5406 3.10493C19.0278 3.10493 22.3723 4.51187 24.8384 7.01607C27.3042 9.52064 28.6895 12.9173 28.6895 16.4588C28.6895 20.0004 27.3042 23.3971 24.8384 25.9016C22.3723 28.4058 19.0278 29.8128 15.5406 29.8128C12.0545 29.8084 8.71244 28.4001 6.24732 25.8969C3.78265 23.3934 2.39585 19.9993 2.39157 16.4588L2.39166 16.4588ZM24.705 38.2941C24.2464 38.1607 23.7537 38.3128 23.446 38.6825L21.2147 41.4505L18.3618 31.9651C20.7625 31.5088 23.0234 30.4827 24.9601 28.9706L28.068 39.3134L24.705 38.2941Z" fill="#A65E34"/>
<path id="Vector_2" d="M21.3905 13.2217L18.6013 12.817L17.3583 10.2597H17.358C17.1346 9.79724 16.7482 9.43702 16.2757 9.25023C15.8033 9.06307 15.2789 9.06307 14.8064 9.25023C14.334 9.43702 13.9476 9.79725 13.7242 10.2597L12.4812 12.817L9.69166 13.2217C9.19431 13.2986 8.74284 13.5613 8.4259 13.958C8.10856 14.3547 7.94811 14.8573 7.97586 15.3674C8.00396 15.8776 8.21777 16.3593 8.57603 16.7181L10.6003 18.7251L10.1222 21.5415C10.0329 22.048 10.1357 22.5701 10.4093 23.003C10.6832 23.4358 11.108 23.7476 11.5986 23.8759C12.0892 24.0042 12.6094 23.9391 13.0548 23.6945L15.5412 22.3024L18.0276 23.6299V23.6295C18.3169 23.7874 18.6395 23.8709 18.9679 23.8723C19.3966 23.8727 19.8142 23.7368 20.1632 23.4839C20.4667 23.2577 20.7022 22.9503 20.8427 22.5954C20.9836 22.241 21.0242 21.8537 20.9601 21.4768L20.482 18.6604L22.5063 16.6534C22.8646 16.2946 23.0784 15.813 23.1065 15.3028C23.1342 14.7923 22.9738 14.2901 22.6564 13.8934C22.3395 13.4966 21.888 13.234 21.3907 13.157L21.3905 13.2217ZM18.3623 17.4302C18.088 17.7109 17.9634 18.1083 18.0275 18.4986L18.4736 21.2019L16.0989 19.9233V19.9229C15.7513 19.73 15.3308 19.73 14.9832 19.9229L12.6086 21.2016L13.0547 18.4982V18.4986C13.1187 18.1084 12.9942 17.7109 12.7199 17.4302L10.7597 15.4552L13.4215 15.0668C13.8068 15.0047 14.1391 14.7575 14.3138 14.4031L15.5412 11.9429L16.7366 14.4035V14.4031C16.9116 14.7576 17.2435 15.0047 17.6292 15.0668L20.291 15.4552L18.3623 17.4302Z" fill="#A65E34"/>
</g>
</svg>
